<?xml version="1.0" encoding="utf-8"?>
<!DOCTYPE svg PUBLIC "-//W3C//DTD SVG 1.1//EN" "http://www.w3.org/Graphics/SVG/1.1/DTD/svg11.dtd">
<svg version="1.1" xmlns="http://www.w3.org/2000/svg" width="537px" height="552px" viewBox="0 0 537 552" preserveAspectRatio="xMidYMid meet">
 <g fill="#20c997" stroke="#2bdea8" stroke-width="1">
  <path d="M 133.1 510 c -21.3 -0.5 -21.3 -0.5 -24.8 -4.5 -4.2 -4.7 -7.2 -10.9 -7.3 -14.6 0 -3.2 4.6 -9.8 9.2 -13 3.3 -2.4 3.3 -2.4 53.8 -2.7 55.7 -0.3 55.7 -0.3 61.6 5.9 2.7 2.9 2.9 3.5 2.9 11.2 0 5.9 -0.5 9.1 -1.8 11.4 -3.3 6.1 -3.1 6.1 -39.2 6.5 -18.1 0.1 -42.6 0.1 -54.4 -0.2 z "/>
  <path d="M 260 467 c -19.5 -0.4 -36.3 -0.9 -37.4 -1.1 -2.1 -0.6 -6.2 -9.6 -7.1 -15.6 -0.8 -5.1 2.7 -12 7.5 -14.8 3.4 -1.9 5.5 -2 50.3 -2.4 51.2 -0.3 51.8 -0.3 58 5.5 3.8 3.5 4.7 6.3 4.7 14.6 0 6.8 -0.1 7.1 -3.9 10.9 -4.4 4.4 3.3 4.1 -72.1 2.9 z "/>
  <path d="M492.2 418.3 C 492.2 429.2 483.4 438 472.5 438 461.6 438 452.7 429.2 452.7 418.3 452.7 407.4 461.6 398.5 472.5 398.5 483.4 398.5 492.2 407.4 492.2 418.3 Z M467.8 437.1  M484.6 417.4 C 484.6 410.8 479.3 405.4 472.7 405.4 466.1 405.4 460.7 410.8 460.7 417.4 460.7 424 466.1 429.3 472.7 429.3 479.3 429.3 484.6 424 484.6 417.4 Z M478.9 427.9 "/>
  <path d="M479.9 417.2 C 479.9 421.2 476.6 424.5 472.6 424.5 468.5 424.5 465.3 421.2 465.3 417.2 465.3 413.2 468.5 409.9 472.6 409.9 476.6 409.9 479.9 413.2 479.9 417.2 Z M469.4 423.6 "/>
  <path d="M 337.5 429 c -12.1 -1.3 -14.6 -3.3 -16.7 -13.1 -1.5 -7.2 -0.4 -12.3 3.5 -16.5 2.6 -2.8 4.3 -3.6 8.9 -4.4 6.8 -1.1 71.3 -1.3 87.2 -0.4 10 0.7 11.2 0.9 14 3.5 3.1 2.7 3.1 2.8 3.1 12.7 0 8.6 -0.3 10.5 -2.1 12.9 -4.3 5.8 -4.2 5.7 -49.4 5.9 -22.8 0.1 -44.6 -0.1 -48.5 -0.6 z "/>
  <path d="M 193.5 420.5 c -4.8 -1.7 -7.7 -4.9 -11.6 -13 -4.4 -9.1 -4 -11.6 2.9 -18.6 5.7 -5.8 5.7 -5.8 12.2 -4.4 9.6 2.1 15.2 1.1 21.3 -3.9 2.8 -2.3 6.5 -6.3 8.3 -8.9 5.9 -8.6 6.4 -11.9 6.4 -42.7 0 -34.7 -0.5 -33.6 11.1 -25.3 4.6 3.3 10.3 7 12.6 8.2 2.3 1.1 4.7 3 5.3 4 0.6 1.2 1 10.6 1 23.4 0 25.1 1.3 21.9 -16.6 40.7 -10.9 11.5 -23.4 25.4 -28.8 32 -1.6 1.9 -4.9 5 -7.4 6.8 -5.1 3.6 -9.9 4.1 -16.7 1.7 z "/>
  <path d="M 313.4 379.1 c -5.4 -2.4 -11.1 -8.5 -12.4 -13 -0.5 -2 -1 -13.3 -1 -25.2 0 -19.3 -0.2 -21.8 -1.7 -23.2 -1 -0.8 -6.5 -4.3 -12.3 -7.7 -9.1 -5.4 -23.2 -15.2 -41.8 -29.3 -2.9 -2.2 -6.6 -5.7 -8.2 -7.7 -2.9 -3.7 -2.9 -3.7 -3.2 -32.6 -0.3 -40 -1 -56.6 -2.5 -57.1 -1.5 -0.5 -15.1 11.3 -29.5 25.8 -6.5 6.5 -13.6 13 -15.9 14.5 -4.2 2.6 -4.2 2.6 -3.5 16.8 0.4 9 0.3 15.2 -0.3 16.9 -0.9 2.3 -0.8 2.7 0.7 2.7 2.8 0 5.4 5.7 6 13 0.5 7.6 -0.9 10 -5.8 10 -4.2 0 -7 -4 -7 -10 0 -4.7 0 -4.7 -12.2 -5.3 -6.7 -0.3 -12.4 -0.5 -12.6 -0.3 -0.2 0.2 -0.7 3.2 -1.2 6.6 -1.2 8.3 -2.2 9.3 -8.7 8.8 -2.9 -0.3 -5.6 -0.8 -6 -1.2 -0.5 -0.4 -0.9 -4.2 -1.1 -8.4 -0.3 -6.5 -0.1 -8 1.5 -9.4 2.1 -1.8 10.4 -4.8 13.5 -4.8 1.7 0 1.9 -0.4 1.4 -2.7 -1.2 -5.1 -1.9 -25.9 -1.1 -34.7 0.8 -10.3 1.7 -11.6 13.9 -20.9 4.5 -3.4 10.6 -8.4 13.7 -11.2 26.9 -24.2 42.7 -35.9 52 -38.4 3.1 -0.9 10.5 -1.2 22.8 -0.9 15.9 0.3 18.4 0.5 19.5 2 1 1.3 1.5 14.4 2 53.5 0.6 46.5 0.9 51.9 2.4 53.6 2.8 3.1 22.4 16.6 41.2 28.3 12.9 8 18 13 19.1 18.4 1.2 6.6 1.1 59.3 -0.2 62.7 -2.1 5.8 -10.5 12.3 -15.6 12.3 -1 0 -3.6 -0.9 -5.9 -1.9 z "/>
  <path d="M 388.5 375.9 c -2.9 -2.6 -4.8 -5.5 -5.4 -7.8 -0.5 -2 -0.9 -39.9 -1 -84.3 -0.1 -80.6 -0.1 -80.6 3.6 -83.8 2 -1.8 5.2 -3.9 7.1 -4.7 3 -1.2 4 -1.2 8.2 0.2 2.6 0.9 6.6 3.3 8.9 5.4 4.1 3.8 4.1 3.8 4.1 85.2 0 77.2 -0.1 81.6 -1.9 85.5 -2.5 5.5 -7.3 8.4 -14 8.4 -4.6 0 -5.6 -0.4 -9.6 -4.1 z "/>
  <path d="M 109.3 369.4 c -6.1 -3.1 -7.2 -6.4 -7.4 -21.4 -0.1 -14.8 0.3 -15.9 6.5 -16.1 3.4 -0.1 9 -1.6 6.6 -1.8 -0.7 -0.1 -4 -0.9 -7.2 -1.8 -5.7 -1.7 -5.7 -1.7 -6 -10.7 -0.2 -5 -0.2 -13.7 0 -19.3 0.3 -9.9 0.4 -10.4 3 -12.1 2.4 -1.5 6.7 -1.7 52.1 -1.5 27.3 0.1 51.2 0.5 53.1 0.8 1.9 0.3 4.6 1.5 6 2.5 2.4 1.9 2.5 2.2 2.2 13.2 -0.1 6.2 -0.6 14.5 -1 18.3 -0.7 7 -0.7 7 -18.2 7.8 -18.7 0.9 -22 1.2 -22 2.6 0 1.8 31.7 3.7 36.1 2.2 1.8 -0.6 3.4 -1 3.5 -0.8 0.2 0.2 0.6 5.7 1 12.3 0.8 13.5 -0.1 17.6 -4.4 21.6 -4.8 4.6 -8 4.9 -55.7 5.4 -40.3 0.4 -45.3 0.3 -48.2 -1.2 z  M174.9 333.4 C 174.9 325.7 168.6 319.4 160.9 319.4 153.2 319.4 147 325.7 147 333.4 147 341.1 153.2 347.3 160.9 347.3 168.6 347.3 174.9 341.1 174.9 333.4 Z M168.9 345.4 "/>
  <path d="M 289.6 228 c 1 -31.3 1.5 -33.2 6.6 -27.1 2.5 2.9 2.5 2.9 22.4 3.3 18.8 0.3 20.1 0.5 24.1 2.8 8.4 4.7 12.1 14 8.9 22.5 -1.8 4.7 -7.2 10.2 -10.9 11 -1.2 0.2 -13.3 0.6 -26.9 0.7 -24.6 0.3 -24.6 0.3 -24.2 -13.2 z "/>
  <path d="M456.9 112.8 C 456.9 147.3 429 175.2 394.5 175.2 360 175.2 332.1 147.3 332.1 112.8 332.1 78.3 360 50.4 394.5 50.4 429 50.4 456.9 78.3 456.9 112.8 Z M381.5 173.4  M434.6 113.1 C 434.6 91.3 417 73.6 395.1 73.6 373.3 73.6 355.6 91.3 355.6 113.1 355.6 135 373.3 152.7 395.1 152.7 417 152.7 434.6 135 434.6 113.1 Z M404.2 150.9 "/>
  <path d="M 387.8 133 c -2 -1.1 -5.9 -4.1 -8.8 -6.7 -4.5 -4.1 -5.3 -5.4 -5.7 -9.3 -0.4 -3.8 0 -5.2 2.6 -9.1 1.7 -2.5 5.7 -7.1 9 -10.2 4.8 -4.6 6.6 -5.7 9.2 -5.7 4.4 0 9.5 3.7 15.6 11.3 6.5 8.1 7.3 9.7 7.3 15.1 0 3.8 -0.5 4.8 -3 6.8 -1.7 1.3 -4.6 3.5 -6.4 5 -6.3 5.2 -13.3 6.2 -19.8 2.8 z "/>
  <path d="M288.8 102.5 C 288.8 119.9 274.7 134 257.3 134 239.9 134 225.8 119.9 225.8 102.5 225.8 85 239.9 70.9 257.3 70.9 274.7 70.9 288.8 85 288.8 102.5 Z M248.4 133.9 "/>
 </g>
</svg>